<svg width="472" height="131" viewBox="0 0 472 131" fill="none" xmlns="http://www.w3.org/2000/svg">
<mask id="path-1-outside-1_503_1003" maskUnits="userSpaceOnUse" x="1.52002" y="2.41235" width="197" height="127" fill="black">
<rect fill="white" x="1.52002" y="2.41235" width="197" height="127"/>
<path d="M42.096 82.4081C38.6293 87.1921 33.984 89.5841 28.16 89.5841C23.4453 89.5841 19.6667 88.6134 16.824 86.6721C14.0507 84.6614 12.664 81.5068 12.664 77.2081C12.664 75.4054 12.9067 73.7414 13.392 72.2161C13.9467 70.6908 14.8133 68.8188 15.992 66.6001L19.008 41.9521C21.1573 40.2881 24.0693 39.4561 27.744 39.4561C30.864 39.4561 32.632 41.5361 33.048 45.6961C33.1867 46.9441 33.256 48.4348 33.256 50.1681C33.256 51.8321 32.9787 53.6001 32.424 55.4721C29.6507 65.0401 28.2987 71.4534 28.368 74.7121C28.368 77.2081 29.824 78.4561 32.736 78.4561C35.648 78.4561 37.7973 77.5201 39.184 75.6481C40.5707 73.7761 41.7493 71.4534 42.72 68.6801C44.5227 60.9841 46.1867 54.6401 47.712 49.6481C49.3067 44.6561 50.312 41.6748 50.728 40.7041C51.4213 39.0401 52.7387 38.1734 54.68 38.1041C56.6213 38.1734 58.4587 39.5601 60.192 42.2641C61.9253 44.8988 62.792 46.9441 62.792 48.4001C62.6533 53.2534 59.6373 65.4908 53.744 85.1121C58.2507 81.5761 62.7227 77.2428 67.16 72.1121C68.6853 70.3094 69.968 68.8188 71.008 67.6401C72.048 66.3921 72.88 65.7681 73.504 65.7681C74.4747 65.7681 74.96 66.8774 74.96 69.0961C74.96 73.4641 72.4987 78.5601 67.576 84.3841C62.7227 90.2081 56.76 94.7494 49.688 98.0081C48.856 100.781 47.9547 103.416 46.984 105.912C46.0133 108.408 44.7653 110.592 43.24 112.464C39.912 116.485 34.8507 118.496 28.056 118.496C23.48 118.496 19.5627 117.179 16.304 114.544C13.1147 111.909 11.52 108.616 11.52 104.664C11.52 102.445 12.248 100.677 13.704 99.3601C15.2293 98.0428 17.2747 96.9334 19.84 96.0321C22.4747 95.2001 25.5253 94.4374 28.992 93.7441C32.4587 93.1201 36.168 92.3228 40.12 91.3521C41.0907 87.1921 41.7493 84.2108 42.096 82.4081ZM27.952 110.488C31.2107 110.488 34.1573 107.645 36.792 101.96C34.296 102.445 32.0773 102.792 30.136 103C28.1947 103.277 26.5307 103.52 25.144 103.728C22.3707 104.144 21.0187 104.872 21.088 105.912C21.088 107.229 21.8507 108.339 23.376 109.24C24.9707 110.141 26.496 110.557 27.952 110.488ZM102.12 46.1121C102.12 41.4668 105.726 39.1441 112.936 39.1441C114.739 39.1441 115.848 39.7334 116.264 40.9121C116.75 42.0908 116.992 43.8934 116.992 46.3201C116.992 49.7174 116.23 54.9868 114.704 62.1281C113.179 69.2694 112.451 74.0881 112.52 76.5841C112.52 77.7628 112.902 78.3521 113.664 78.3521C114.704 78.3521 115.987 77.6934 117.512 76.3761C119.038 75.0588 120.563 73.6374 122.088 72.1121C123.614 70.5174 125 69.0614 126.248 67.7441C127.566 66.4268 128.467 65.7681 128.952 65.7681C129.923 65.7681 130.408 66.9468 130.408 69.3041C130.408 74.1574 128.016 78.8374 123.232 83.3441C115.19 88.0588 110.094 90.4161 107.944 90.4161C107.736 90.4161 107.563 90.3814 107.424 90.3121C104.79 90.3121 102.918 89.4454 101.808 87.7121C100.768 85.9788 100.11 83.7948 99.8323 81.1601C98.4456 83.7254 96.5389 85.9441 94.1122 87.8161C91.6856 89.6188 88.9123 90.5201 85.7923 90.5201C80.3149 90.5201 76.0856 89.4801 73.1043 87.4001C70.1923 85.3201 68.7363 82.2348 68.7363 78.1441C68.7363 76.3414 68.9789 74.6774 69.4643 73.1521C70.0189 71.6268 70.8856 69.7548 72.0643 67.5361L75.0803 41.9521C77.2296 40.2881 80.3149 39.4561 84.3363 39.4561C87.5256 39.4561 89.3283 41.5361 89.7443 45.6961C90.0909 49.0934 89.9176 52.1441 89.2243 54.8481C88.6003 57.4828 87.7336 60.8454 86.6243 64.9361C85.5149 68.9574 84.9603 72.5281 84.9603 75.6481C84.9603 78.1441 86.5203 79.3921 89.6403 79.3921C93.0376 79.3921 95.9843 76.4108 98.4803 70.4481C100.422 65.8721 101.739 60.7761 102.432 55.1601C102.363 54.6054 102.294 53.9121 102.224 53.0801C102.224 52.1788 102.19 51.3121 102.12 50.4801C102.12 49.6481 102.12 48.8161 102.12 47.9841V46.1121ZM159.861 55.0561C159.861 52.5601 158.371 51.3121 155.389 51.3121C152.477 51.3121 149.6 53.6001 146.757 58.1761C143.915 62.6828 142.147 67.2934 141.453 72.0081C141.592 73.6028 141.731 75.1974 141.869 76.7921C142.008 78.3868 142.077 79.9468 142.077 81.4721C142.077 85.1468 140.864 87.6428 138.437 88.9601C137.328 89.5841 136.253 90.1734 135.213 90.7281C134.243 91.2828 133.099 91.5601 131.781 91.5601C130.464 91.5601 129.285 90.6934 128.245 88.9601C127.275 87.1574 126.789 84.3841 126.789 80.6401C126.789 70.1708 127.552 61.0881 129.077 53.3921C131.435 41.4668 136.115 28.7094 143.117 15.1201C144.088 13.2481 145.509 12.3467 147.381 12.4161C149.253 12.4161 150.779 13.6987 151.957 16.2641C153.136 18.8294 153.691 20.9787 153.621 22.7121C153.621 24.4454 153.344 26.1441 152.789 27.8081C152.304 29.4028 151.645 30.9974 150.813 32.5921C150.051 34.1174 149.149 35.7121 148.109 37.3761C147.139 38.9708 146.168 40.7041 145.197 42.5761L143.637 50.0641C146.341 45.5574 149.981 42.5414 154.557 41.0161C156.221 40.4614 158.059 40.1841 160.069 40.1841C164.784 40.1841 168.355 41.2588 170.781 43.4081C173.208 45.4881 174.421 48.4694 174.421 52.3521C174.421 56.1654 173.901 60.0481 172.861 64.0001C171.891 67.9521 171.163 70.7948 170.677 72.5281C170.261 74.1921 170.053 75.5788 170.053 76.6881C170.053 77.7974 170.435 78.3521 171.197 78.3521C172.237 78.3521 173.52 77.6934 175.045 76.3761C176.571 75.0588 178.096 73.6374 179.621 72.1121C181.147 70.5174 182.533 69.0614 183.781 67.7441C185.099 66.4268 186 65.7681 186.485 65.7681C187.456 65.7681 187.941 66.9468 187.941 69.3041C187.941 74.1574 185.549 78.8374 180.765 83.3441C172.723 88.0588 167.592 90.4161 165.373 90.4161C165.165 90.4161 165.027 90.3814 164.957 90.3121C159.411 90.3121 156.637 85.8748 156.637 77.0001C156.637 73.1868 156.984 69.6854 157.677 66.4961C158.44 63.3068 158.995 60.9841 159.341 59.5281C159.688 58.0721 159.861 56.5814 159.861 55.0561Z"/>
</mask>
<path d="M42.096 82.4081C38.6293 87.1921 33.984 89.5841 28.16 89.5841C23.4453 89.5841 19.6667 88.6134 16.824 86.6721C14.0507 84.6614 12.664 81.5068 12.664 77.2081C12.664 75.4054 12.9067 73.7414 13.392 72.2161C13.9467 70.6908 14.8133 68.8188 15.992 66.6001L19.008 41.9521C21.1573 40.2881 24.0693 39.4561 27.744 39.4561C30.864 39.4561 32.632 41.5361 33.048 45.6961C33.1867 46.9441 33.256 48.4348 33.256 50.1681C33.256 51.8321 32.9787 53.6001 32.424 55.4721C29.6507 65.0401 28.2987 71.4534 28.368 74.7121C28.368 77.2081 29.824 78.4561 32.736 78.4561C35.648 78.4561 37.7973 77.5201 39.184 75.6481C40.5707 73.7761 41.7493 71.4534 42.72 68.6801C44.5227 60.9841 46.1867 54.6401 47.712 49.6481C49.3067 44.6561 50.312 41.6748 50.728 40.7041C51.4213 39.0401 52.7387 38.1734 54.68 38.1041C56.6213 38.1734 58.4587 39.5601 60.192 42.2641C61.9253 44.8988 62.792 46.9441 62.792 48.4001C62.6533 53.2534 59.6373 65.4908 53.744 85.1121C58.2507 81.5761 62.7227 77.2428 67.16 72.1121C68.6853 70.3094 69.968 68.8188 71.008 67.6401C72.048 66.3921 72.88 65.7681 73.504 65.7681C74.4747 65.7681 74.96 66.8774 74.96 69.0961C74.96 73.4641 72.4987 78.5601 67.576 84.3841C62.7227 90.2081 56.76 94.7494 49.688 98.0081C48.856 100.781 47.9547 103.416 46.984 105.912C46.0133 108.408 44.7653 110.592 43.24 112.464C39.912 116.485 34.8507 118.496 28.056 118.496C23.48 118.496 19.5627 117.179 16.304 114.544C13.1147 111.909 11.52 108.616 11.52 104.664C11.52 102.445 12.248 100.677 13.704 99.3601C15.2293 98.0428 17.2747 96.9334 19.84 96.0321C22.4747 95.2001 25.5253 94.4374 28.992 93.7441C32.4587 93.1201 36.168 92.3228 40.12 91.3521C41.0907 87.1921 41.7493 84.2108 42.096 82.4081ZM27.952 110.488C31.2107 110.488 34.1573 107.645 36.792 101.96C34.296 102.445 32.0773 102.792 30.136 103C28.1947 103.277 26.5307 103.52 25.144 103.728C22.3707 104.144 21.0187 104.872 21.088 105.912C21.088 107.229 21.8507 108.339 23.376 109.24C24.9707 110.141 26.496 110.557 27.952 110.488ZM102.12 46.1121C102.12 41.4668 105.726 39.1441 112.936 39.1441C114.739 39.1441 115.848 39.7334 116.264 40.9121C116.75 42.0908 116.992 43.8934 116.992 46.3201C116.992 49.7174 116.23 54.9868 114.704 62.1281C113.179 69.2694 112.451 74.0881 112.52 76.5841C112.52 77.7628 112.902 78.3521 113.664 78.3521C114.704 78.3521 115.987 77.6934 117.512 76.3761C119.038 75.0588 120.563 73.6374 122.088 72.1121C123.614 70.5174 125 69.0614 126.248 67.7441C127.566 66.4268 128.467 65.7681 128.952 65.7681C129.923 65.7681 130.408 66.9468 130.408 69.3041C130.408 74.1574 128.016 78.8374 123.232 83.3441C115.19 88.0588 110.094 90.4161 107.944 90.4161C107.736 90.4161 107.563 90.3814 107.424 90.3121C104.79 90.3121 102.918 89.4454 101.808 87.7121C100.768 85.9788 100.11 83.7948 99.8323 81.1601C98.4456 83.7254 96.5389 85.9441 94.1122 87.8161C91.6856 89.6188 88.9123 90.5201 85.7923 90.5201C80.3149 90.5201 76.0856 89.4801 73.1043 87.4001C70.1923 85.3201 68.7363 82.2348 68.7363 78.1441C68.7363 76.3414 68.9789 74.6774 69.4643 73.1521C70.0189 71.6268 70.8856 69.7548 72.0643 67.5361L75.0803 41.9521C77.2296 40.2881 80.3149 39.4561 84.3363 39.4561C87.5256 39.4561 89.3283 41.5361 89.7443 45.6961C90.0909 49.0934 89.9176 52.1441 89.2243 54.8481C88.6003 57.4828 87.7336 60.8454 86.6243 64.9361C85.5149 68.9574 84.9603 72.5281 84.9603 75.6481C84.9603 78.1441 86.5203 79.3921 89.6403 79.3921C93.0376 79.3921 95.9843 76.4108 98.4803 70.4481C100.422 65.8721 101.739 60.7761 102.432 55.1601C102.363 54.6054 102.294 53.9121 102.224 53.0801C102.224 52.1788 102.19 51.3121 102.12 50.4801C102.12 49.6481 102.12 48.8161 102.12 47.9841V46.1121ZM159.861 55.0561C159.861 52.5601 158.371 51.3121 155.389 51.3121C152.477 51.3121 149.6 53.6001 146.757 58.1761C143.915 62.6828 142.147 67.2934 141.453 72.0081C141.592 73.6028 141.731 75.1974 141.869 76.7921C142.008 78.3868 142.077 79.9468 142.077 81.4721C142.077 85.1468 140.864 87.6428 138.437 88.9601C137.328 89.5841 136.253 90.1734 135.213 90.7281C134.243 91.2828 133.099 91.5601 131.781 91.5601C130.464 91.5601 129.285 90.6934 128.245 88.9601C127.275 87.1574 126.789 84.3841 126.789 80.6401C126.789 70.1708 127.552 61.0881 129.077 53.3921C131.435 41.4668 136.115 28.7094 143.117 15.1201C144.088 13.2481 145.509 12.3467 147.381 12.4161C149.253 12.4161 150.779 13.6987 151.957 16.2641C153.136 18.8294 153.691 20.9787 153.621 22.7121C153.621 24.4454 153.344 26.1441 152.789 27.8081C152.304 29.4028 151.645 30.9974 150.813 32.5921C150.051 34.1174 149.149 35.7121 148.109 37.3761C147.139 38.9708 146.168 40.7041 145.197 42.5761L143.637 50.0641C146.341 45.5574 149.981 42.5414 154.557 41.0161C156.221 40.4614 158.059 40.1841 160.069 40.1841C164.784 40.1841 168.355 41.2588 170.781 43.4081C173.208 45.4881 174.421 48.4694 174.421 52.3521C174.421 56.1654 173.901 60.0481 172.861 64.0001C171.891 67.9521 171.163 70.7948 170.677 72.5281C170.261 74.1921 170.053 75.5788 170.053 76.6881C170.053 77.7974 170.435 78.3521 171.197 78.3521C172.237 78.3521 173.52 77.6934 175.045 76.3761C176.571 75.0588 178.096 73.6374 179.621 72.1121C181.147 70.5174 182.533 69.0614 183.781 67.7441C185.099 66.4268 186 65.7681 186.485 65.7681C187.456 65.7681 187.941 66.9468 187.941 69.3041C187.941 74.1574 185.549 78.8374 180.765 83.3441C172.723 88.0588 167.592 90.4161 165.373 90.4161C165.165 90.4161 165.027 90.3814 164.957 90.3121C159.411 90.3121 156.637 85.8748 156.637 77.0001C156.637 73.1868 156.984 69.6854 157.677 66.4961C158.44 63.3068 158.995 60.9841 159.341 59.5281C159.688 58.0721 159.861 56.5814 159.861 55.0561Z" stroke="#FFB23F" stroke-width="20" mask="url(#path-1-outside-1_503_1003)"/>
<mask id="path-2-outside-2_503_1003" maskUnits="userSpaceOnUse" x="172.192" y="2.41602" width="299" height="100" fill="black">
<rect fill="white" x="172.192" y="2.41602" width="299" height="100"/>
<path d="M246.57 65.456C247.818 65.456 248.442 67.0507 248.442 70.24C248.442 71.9733 247.714 74.088 246.258 76.584C244.802 79.0107 242.895 81.264 240.538 83.344C238.25 85.3547 235.684 87.0187 232.842 88.336C229.999 89.6533 227.226 90.312 224.522 90.312C220.708 90.312 218.212 87.192 217.034 80.952C212.874 87.5387 206.703 90.832 198.522 90.832C193.53 90.832 189.543 89.3067 186.562 86.256C183.58 83.2053 182.124 79.496 182.194 75.128C182.194 63.3413 186.111 54.0507 193.946 47.256C199.354 42.6107 204.97 40.288 210.794 40.288C213.428 40.288 215.508 40.496 217.034 40.912L219.426 41.536C222.268 28.1547 225.562 19.2107 229.306 14.704C230.554 13.1787 231.802 12.416 233.05 12.416C235.06 12.416 236.932 13.8027 238.666 16.576C240.191 18.864 240.954 20.84 240.954 22.504C240.954 24.168 240.711 25.7973 240.226 27.392C239.74 28.9867 239.116 30.4773 238.354 31.864C237.66 33.1813 236.863 34.4987 235.962 35.816C235.06 37.064 234.159 38.3467 233.258 39.664C231.247 47.152 229.756 55.5413 228.786 64.832C228.508 67.4667 228.37 69.5813 228.37 71.176C228.37 75.96 229.167 78.352 230.762 78.352C232.564 78.352 236.932 74.7467 243.866 67.536C245.114 66.1493 246.015 65.456 246.57 65.456ZM197.482 71.696C197.482 77.0347 199.458 79.704 203.41 79.704C205.767 79.704 208.124 78.8027 210.482 77C212.908 75.1973 214.78 72.1813 216.098 67.952C216.236 61.712 216.964 54.848 218.282 47.36C212.735 48.4693 207.882 51.1733 203.722 55.472C199.562 59.7707 197.482 65.1787 197.482 71.696ZM285.261 81.16C279.784 87.608 273.197 90.832 265.501 90.832C257.874 90.832 252.154 88.8907 248.341 85.008C244.528 81.056 242.656 76.168 242.725 70.344C242.656 62.0933 245.256 54.9867 250.525 49.024C255.794 43.0613 262.693 40.08 271.221 40.08C275.104 40.08 278.224 40.5653 280.581 41.536C284.672 43.2 286.717 44.76 286.717 46.216C286.717 47.3253 283.84 47.9147 278.085 47.984C272.4 47.984 267.616 49.96 263.733 53.912C259.92 57.7947 258.013 62.7173 258.013 68.68C258.013 71.8 258.914 74.4347 260.717 76.584C262.589 78.664 265.189 79.704 268.517 79.704C271.914 79.704 274.722 79.0107 276.941 77.624C272.018 74.296 269.557 69.4773 269.557 63.168C269.488 59.84 270.666 56.824 273.093 54.12C275.589 51.3467 278.744 49.96 282.557 49.96C286.44 49.8907 289.213 50.9307 290.877 53.08C292.541 55.2293 293.373 58.0027 293.373 61.4C293.373 64.728 292.576 68.264 290.981 72.008H291.605C294.656 71.9387 297.29 70.864 299.509 68.784C300.341 67.952 301.034 67.224 301.589 66.6C302.213 65.976 302.837 65.664 303.461 65.664C304.432 65.664 304.917 66.808 304.917 69.096C304.917 73.3253 303.669 76.5147 301.173 78.664C298.677 80.744 295.904 81.784 292.853 81.784C289.872 81.784 287.341 81.576 285.261 81.16ZM284.325 69.096C285.504 66.6 286.093 64.1733 286.093 61.816C286.093 59.4587 285.33 58.28 283.805 58.28C283.181 58.28 282.661 58.7307 282.245 59.632C281.829 60.5333 281.621 61.4 281.621 62.232C281.621 65.0053 282.522 67.2933 284.325 69.096ZM322.906 90.312C312.991 90.3813 306.231 86.672 302.626 79.184C301.378 76.5493 300.754 73.256 300.754 69.304C300.754 65.2827 301.1 61.0187 301.794 56.512C303.18 47.4987 305.85 39.1787 309.802 31.552C311.812 27.6693 314.066 24.3413 316.562 21.568C322.039 15.4667 328.14 12.4507 334.866 12.52C337.847 12.52 340.17 13.352 341.834 15.016C343.567 16.6107 344.434 18.9334 344.434 21.984C344.434 25.0347 343.532 28.12 341.73 31.24C339.927 34.2907 337.604 37.48 334.762 40.808C331.988 44.0667 328.903 47.4987 325.506 51.104C322.108 54.7093 318.78 58.6267 315.522 62.856V67.016C315.522 70.8987 316.354 73.7413 318.018 75.544C319.682 77.3467 321.623 78.248 323.842 78.248C329.804 78.248 335.074 75.3013 339.65 69.408C341.522 66.9813 342.943 65.768 343.914 65.768C344.884 65.768 345.37 66.9467 345.37 69.304C345.37 71.6613 344.711 74.088 343.394 76.584C342.146 79.0107 340.482 81.264 338.402 83.344C336.322 85.3547 333.93 87.0187 331.226 88.336C328.522 89.6533 325.748 90.312 322.906 90.312ZM328.522 34.464C329.978 32.6613 331.122 31.032 331.954 29.576C332.786 28.12 333.202 26.6293 333.202 25.104C333.202 23.5093 332.647 22.712 331.538 22.712C329.111 22.712 326.407 25.208 323.426 30.2C320.514 35.192 318.33 41.744 316.874 49.856C319.231 46.2507 321.38 43.2347 323.322 40.808C325.332 38.3813 327.066 36.2667 328.522 34.464ZM403.078 65.456C404.326 65.456 404.95 67.0507 404.95 70.24C404.95 71.9733 404.222 74.088 402.766 76.584C401.31 79.0107 399.403 81.264 397.046 83.344C394.758 85.3547 392.192 87.0187 389.35 88.336C386.507 89.6533 383.734 90.312 381.03 90.312C377.355 90.312 374.894 87.088 373.646 80.64C371.843 83.6213 369.486 86.0827 366.574 88.024C363.662 89.896 359.744 90.832 354.822 90.832C349.968 90.832 346.051 89.3067 343.07 86.256C340.088 83.2053 338.632 79.496 338.702 75.128C338.702 63.3413 342.619 54.0507 350.454 47.256C353.782 44.4133 356.867 42.5413 359.71 41.64C362.622 40.7387 365.672 40.288 368.862 40.288C372.051 40.288 374.651 40.8427 376.662 41.952C377.632 39.9413 378.742 38.936 379.99 38.936C382.416 38.936 384.704 40.0107 386.854 42.16C389.072 44.24 390.182 46.216 390.182 48.088C389.211 50.376 387.79 53.1147 385.918 56.304C385.363 59.4933 385.086 63.9653 385.086 69.72C385.086 75.4747 385.814 78.352 387.27 78.352C389.072 78.352 393.44 74.7467 400.374 67.536C401.622 66.1493 402.523 65.456 403.078 65.456ZM353.99 71.696C353.99 77.0347 355.966 79.704 359.918 79.704C364.147 79.6347 367.648 77.3813 370.422 72.944C371.392 71.4187 372.19 69.5467 372.814 67.328C372.814 59.5627 373.507 52.9067 374.894 47.36C369.278 48.4693 364.39 51.1733 360.23 55.472C356.07 59.7707 353.99 65.1787 353.99 71.696ZM413.585 38.104C416.081 38.104 418.438 40.496 420.657 45.28C423.915 41.8827 427.937 40.184 432.721 40.184C437.574 40.184 441.214 41.2587 443.641 43.408C446.067 45.488 447.281 48.4693 447.281 52.352C447.281 56.1653 446.761 60.048 445.721 64C444.75 67.952 444.022 70.7947 443.537 72.528C443.121 74.192 442.913 75.5787 442.913 76.688C442.913 77.7973 443.294 78.352 444.057 78.352C445.097 78.352 446.379 77.6933 447.905 76.376C449.43 75.0587 450.955 73.6373 452.481 72.112C454.006 70.5173 455.393 69.0613 456.641 67.744C457.958 66.4267 458.859 65.768 459.345 65.768C460.315 65.768 460.801 66.9467 460.801 69.304C460.801 74.1573 458.409 78.8373 453.625 83.344C445.582 88.0587 440.451 90.416 438.233 90.416C438.025 90.416 437.886 90.3813 437.817 90.312C432.27 90.312 429.497 85.8747 429.497 77C429.497 73.1867 429.843 69.6853 430.537 66.496C431.299 63.3067 431.854 60.984 432.201 59.528C432.547 58.072 432.721 56.5813 432.721 55.056C432.721 52.56 431.265 51.312 428.353 51.312C425.51 51.312 422.771 53.4613 420.137 57.76C417.571 61.9893 415.838 66.392 414.937 70.968V71.696C414.937 74.0533 415.283 76.48 415.977 78.976C416.739 81.472 417.121 83.2053 417.121 84.176C417.121 86.5333 414.174 88.856 408.281 91.144C407.379 91.4907 406.582 91.664 405.889 91.664C404.155 91.664 402.942 90.7627 402.249 88.96C401.625 87.1573 401.313 84.3493 401.313 80.536C401.313 70.6907 401.694 63.584 402.457 59.216C403.497 52.6987 405.854 46.632 409.529 41.016C410.777 39.0747 412.129 38.104 413.585 38.104Z"/>
</mask>
<path d="M246.57 65.456C247.818 65.456 248.442 67.0507 248.442 70.24C248.442 71.9733 247.714 74.088 246.258 76.584C244.802 79.0107 242.895 81.264 240.538 83.344C238.25 85.3547 235.684 87.0187 232.842 88.336C229.999 89.6533 227.226 90.312 224.522 90.312C220.708 90.312 218.212 87.192 217.034 80.952C212.874 87.5387 206.703 90.832 198.522 90.832C193.53 90.832 189.543 89.3067 186.562 86.256C183.58 83.2053 182.124 79.496 182.194 75.128C182.194 63.3413 186.111 54.0507 193.946 47.256C199.354 42.6107 204.97 40.288 210.794 40.288C213.428 40.288 215.508 40.496 217.034 40.912L219.426 41.536C222.268 28.1547 225.562 19.2107 229.306 14.704C230.554 13.1787 231.802 12.416 233.05 12.416C235.06 12.416 236.932 13.8027 238.666 16.576C240.191 18.864 240.954 20.84 240.954 22.504C240.954 24.168 240.711 25.7973 240.226 27.392C239.74 28.9867 239.116 30.4773 238.354 31.864C237.66 33.1813 236.863 34.4987 235.962 35.816C235.06 37.064 234.159 38.3467 233.258 39.664C231.247 47.152 229.756 55.5413 228.786 64.832C228.508 67.4667 228.37 69.5813 228.37 71.176C228.37 75.96 229.167 78.352 230.762 78.352C232.564 78.352 236.932 74.7467 243.866 67.536C245.114 66.1493 246.015 65.456 246.57 65.456ZM197.482 71.696C197.482 77.0347 199.458 79.704 203.41 79.704C205.767 79.704 208.124 78.8027 210.482 77C212.908 75.1973 214.78 72.1813 216.098 67.952C216.236 61.712 216.964 54.848 218.282 47.36C212.735 48.4693 207.882 51.1733 203.722 55.472C199.562 59.7707 197.482 65.1787 197.482 71.696ZM285.261 81.16C279.784 87.608 273.197 90.832 265.501 90.832C257.874 90.832 252.154 88.8907 248.341 85.008C244.528 81.056 242.656 76.168 242.725 70.344C242.656 62.0933 245.256 54.9867 250.525 49.024C255.794 43.0613 262.693 40.08 271.221 40.08C275.104 40.08 278.224 40.5653 280.581 41.536C284.672 43.2 286.717 44.76 286.717 46.216C286.717 47.3253 283.84 47.9147 278.085 47.984C272.4 47.984 267.616 49.96 263.733 53.912C259.92 57.7947 258.013 62.7173 258.013 68.68C258.013 71.8 258.914 74.4347 260.717 76.584C262.589 78.664 265.189 79.704 268.517 79.704C271.914 79.704 274.722 79.0107 276.941 77.624C272.018 74.296 269.557 69.4773 269.557 63.168C269.488 59.84 270.666 56.824 273.093 54.12C275.589 51.3467 278.744 49.96 282.557 49.96C286.44 49.8907 289.213 50.9307 290.877 53.08C292.541 55.2293 293.373 58.0027 293.373 61.4C293.373 64.728 292.576 68.264 290.981 72.008H291.605C294.656 71.9387 297.29 70.864 299.509 68.784C300.341 67.952 301.034 67.224 301.589 66.6C302.213 65.976 302.837 65.664 303.461 65.664C304.432 65.664 304.917 66.808 304.917 69.096C304.917 73.3253 303.669 76.5147 301.173 78.664C298.677 80.744 295.904 81.784 292.853 81.784C289.872 81.784 287.341 81.576 285.261 81.16ZM284.325 69.096C285.504 66.6 286.093 64.1733 286.093 61.816C286.093 59.4587 285.33 58.28 283.805 58.28C283.181 58.28 282.661 58.7307 282.245 59.632C281.829 60.5333 281.621 61.4 281.621 62.232C281.621 65.0053 282.522 67.2933 284.325 69.096ZM322.906 90.312C312.991 90.3813 306.231 86.672 302.626 79.184C301.378 76.5493 300.754 73.256 300.754 69.304C300.754 65.2827 301.1 61.0187 301.794 56.512C303.18 47.4987 305.85 39.1787 309.802 31.552C311.812 27.6693 314.066 24.3413 316.562 21.568C322.039 15.4667 328.14 12.4507 334.866 12.52C337.847 12.52 340.17 13.352 341.834 15.016C343.567 16.6107 344.434 18.9334 344.434 21.984C344.434 25.0347 343.532 28.12 341.73 31.24C339.927 34.2907 337.604 37.48 334.762 40.808C331.988 44.0667 328.903 47.4987 325.506 51.104C322.108 54.7093 318.78 58.6267 315.522 62.856V67.016C315.522 70.8987 316.354 73.7413 318.018 75.544C319.682 77.3467 321.623 78.248 323.842 78.248C329.804 78.248 335.074 75.3013 339.65 69.408C341.522 66.9813 342.943 65.768 343.914 65.768C344.884 65.768 345.37 66.9467 345.37 69.304C345.37 71.6613 344.711 74.088 343.394 76.584C342.146 79.0107 340.482 81.264 338.402 83.344C336.322 85.3547 333.93 87.0187 331.226 88.336C328.522 89.6533 325.748 90.312 322.906 90.312ZM328.522 34.464C329.978 32.6613 331.122 31.032 331.954 29.576C332.786 28.12 333.202 26.6293 333.202 25.104C333.202 23.5093 332.647 22.712 331.538 22.712C329.111 22.712 326.407 25.208 323.426 30.2C320.514 35.192 318.33 41.744 316.874 49.856C319.231 46.2507 321.38 43.2347 323.322 40.808C325.332 38.3813 327.066 36.2667 328.522 34.464ZM403.078 65.456C404.326 65.456 404.95 67.0507 404.95 70.24C404.95 71.9733 404.222 74.088 402.766 76.584C401.31 79.0107 399.403 81.264 397.046 83.344C394.758 85.3547 392.192 87.0187 389.35 88.336C386.507 89.6533 383.734 90.312 381.03 90.312C377.355 90.312 374.894 87.088 373.646 80.64C371.843 83.6213 369.486 86.0827 366.574 88.024C363.662 89.896 359.744 90.832 354.822 90.832C349.968 90.832 346.051 89.3067 343.07 86.256C340.088 83.2053 338.632 79.496 338.702 75.128C338.702 63.3413 342.619 54.0507 350.454 47.256C353.782 44.4133 356.867 42.5413 359.71 41.64C362.622 40.7387 365.672 40.288 368.862 40.288C372.051 40.288 374.651 40.8427 376.662 41.952C377.632 39.9413 378.742 38.936 379.99 38.936C382.416 38.936 384.704 40.0107 386.854 42.16C389.072 44.24 390.182 46.216 390.182 48.088C389.211 50.376 387.79 53.1147 385.918 56.304C385.363 59.4933 385.086 63.9653 385.086 69.72C385.086 75.4747 385.814 78.352 387.27 78.352C389.072 78.352 393.44 74.7467 400.374 67.536C401.622 66.1493 402.523 65.456 403.078 65.456ZM353.99 71.696C353.99 77.0347 355.966 79.704 359.918 79.704C364.147 79.6347 367.648 77.3813 370.422 72.944C371.392 71.4187 372.19 69.5467 372.814 67.328C372.814 59.5627 373.507 52.9067 374.894 47.36C369.278 48.4693 364.39 51.1733 360.23 55.472C356.07 59.7707 353.99 65.1787 353.99 71.696ZM413.585 38.104C416.081 38.104 418.438 40.496 420.657 45.28C423.915 41.8827 427.937 40.184 432.721 40.184C437.574 40.184 441.214 41.2587 443.641 43.408C446.067 45.488 447.281 48.4693 447.281 52.352C447.281 56.1653 446.761 60.048 445.721 64C444.75 67.952 444.022 70.7947 443.537 72.528C443.121 74.192 442.913 75.5787 442.913 76.688C442.913 77.7973 443.294 78.352 444.057 78.352C445.097 78.352 446.379 77.6933 447.905 76.376C449.43 75.0587 450.955 73.6373 452.481 72.112C454.006 70.5173 455.393 69.0613 456.641 67.744C457.958 66.4267 458.859 65.768 459.345 65.768C460.315 65.768 460.801 66.9467 460.801 69.304C460.801 74.1573 458.409 78.8373 453.625 83.344C445.582 88.0587 440.451 90.416 438.233 90.416C438.025 90.416 437.886 90.3813 437.817 90.312C432.27 90.312 429.497 85.8747 429.497 77C429.497 73.1867 429.843 69.6853 430.537 66.496C431.299 63.3067 431.854 60.984 432.201 59.528C432.547 58.072 432.721 56.5813 432.721 55.056C432.721 52.56 431.265 51.312 428.353 51.312C425.51 51.312 422.771 53.4613 420.137 57.76C417.571 61.9893 415.838 66.392 414.937 70.968V71.696C414.937 74.0533 415.283 76.48 415.977 78.976C416.739 81.472 417.121 83.2053 417.121 84.176C417.121 86.5333 414.174 88.856 408.281 91.144C407.379 91.4907 406.582 91.664 405.889 91.664C404.155 91.664 402.942 90.7627 402.249 88.96C401.625 87.1573 401.313 84.3493 401.313 80.536C401.313 70.6907 401.694 63.584 402.457 59.216C403.497 52.6987 405.854 46.632 409.529 41.016C410.777 39.0747 412.129 38.104 413.585 38.104Z" stroke="#518581" stroke-width="20" mask="url(#path-2-outside-2_503_1003)"/>
<path d="M42.096 82.4081C38.6293 87.1921 33.984 89.5841 28.16 89.5841C23.4453 89.5841 19.6667 88.6134 16.824 86.6721C14.0507 84.6614 12.664 81.5068 12.664 77.2081C12.664 75.4054 12.9067 73.7414 13.392 72.2161C13.9467 70.6908 14.8133 68.8188 15.992 66.6001L19.008 41.9521C21.1573 40.2881 24.0693 39.4561 27.744 39.4561C30.864 39.4561 32.632 41.5361 33.048 45.6961C33.1867 46.9441 33.256 48.4348 33.256 50.1681C33.256 51.8321 32.9787 53.6001 32.424 55.4721C29.6507 65.0401 28.2987 71.4534 28.368 74.7121C28.368 77.2081 29.824 78.4561 32.736 78.4561C35.648 78.4561 37.7973 77.5201 39.184 75.6481C40.5707 73.7761 41.7493 71.4534 42.72 68.6801C44.5227 60.9841 46.1867 54.6401 47.712 49.6481C49.3067 44.6561 50.312 41.6748 50.728 40.7041C51.4213 39.0401 52.7387 38.1734 54.68 38.1041C56.6213 38.1734 58.4587 39.5601 60.192 42.2641C61.9253 44.8988 62.792 46.9441 62.792 48.4001C62.6533 53.2534 59.6373 65.4908 53.744 85.1121C58.2507 81.5761 62.7227 77.2428 67.16 72.1121C68.6853 70.3094 69.968 68.8188 71.008 67.6401C72.048 66.3921 72.88 65.7681 73.504 65.7681C74.4747 65.7681 74.96 66.8774 74.96 69.0961C74.96 73.4641 72.4987 78.5601 67.576 84.3841C62.7227 90.2081 56.76 94.7494 49.688 98.0081C48.856 100.781 47.9547 103.416 46.984 105.912C46.0133 108.408 44.7653 110.592 43.24 112.464C39.912 116.485 34.8507 118.496 28.056 118.496C23.48 118.496 19.5627 117.179 16.304 114.544C13.1147 111.909 11.52 108.616 11.52 104.664C11.52 102.445 12.248 100.677 13.704 99.3601C15.2293 98.0428 17.2747 96.9334 19.84 96.0321C22.4747 95.2001 25.5253 94.4374 28.992 93.7441C32.4587 93.1201 36.168 92.3228 40.12 91.3521C41.0907 87.1921 41.7493 84.2108 42.096 82.4081ZM27.952 110.488C31.2107 110.488 34.1573 107.645 36.792 101.96C34.296 102.445 32.0773 102.792 30.136 103C28.1947 103.277 26.5307 103.52 25.144 103.728C22.3707 104.144 21.0187 104.872 21.088 105.912C21.088 107.229 21.8507 108.339 23.376 109.24C24.9707 110.141 26.496 110.557 27.952 110.488ZM102.12 46.1121C102.12 41.4668 105.726 39.1441 112.936 39.1441C114.739 39.1441 115.848 39.7334 116.264 40.9121C116.75 42.0908 116.992 43.8934 116.992 46.3201C116.992 49.7174 116.23 54.9868 114.704 62.1281C113.179 69.2694 112.451 74.0881 112.52 76.5841C112.52 77.7628 112.902 78.3521 113.664 78.3521C114.704 78.3521 115.987 77.6934 117.512 76.3761C119.038 75.0588 120.563 73.6374 122.088 72.1121C123.614 70.5174 125 69.0614 126.248 67.7441C127.566 66.4268 128.467 65.7681 128.952 65.7681C129.923 65.7681 130.408 66.9468 130.408 69.3041C130.408 74.1574 128.016 78.8374 123.232 83.3441C115.19 88.0588 110.094 90.4161 107.944 90.4161C107.736 90.4161 107.563 90.3814 107.424 90.3121C104.79 90.3121 102.918 89.4454 101.808 87.7121C100.768 85.9788 100.11 83.7948 99.8323 81.1601C98.4456 83.7254 96.5389 85.9441 94.1122 87.8161C91.6856 89.6188 88.9123 90.5201 85.7923 90.5201C80.3149 90.5201 76.0856 89.4801 73.1043 87.4001C70.1923 85.3201 68.7363 82.2348 68.7363 78.1441C68.7363 76.3414 68.9789 74.6774 69.4643 73.1521C70.0189 71.6268 70.8856 69.7548 72.0643 67.5361L75.0803 41.9521C77.2296 40.2881 80.3149 39.4561 84.3363 39.4561C87.5256 39.4561 89.3283 41.5361 89.7443 45.6961C90.0909 49.0934 89.9176 52.1441 89.2243 54.8481C88.6003 57.4828 87.7336 60.8454 86.6243 64.9361C85.5149 68.9574 84.9603 72.5281 84.9603 75.6481C84.9603 78.1441 86.5203 79.3921 89.6403 79.3921C93.0376 79.3921 95.9843 76.4108 98.4803 70.4481C100.422 65.8721 101.739 60.7761 102.432 55.1601C102.363 54.6054 102.294 53.9121 102.224 53.0801C102.224 52.1788 102.19 51.3121 102.12 50.4801C102.12 49.6481 102.12 48.8161 102.12 47.9841V46.1121ZM159.861 55.0561C159.861 52.5601 158.371 51.3121 155.389 51.3121C152.477 51.3121 149.6 53.6001 146.757 58.1761C143.915 62.6828 142.147 67.2934 141.453 72.0081C141.592 73.6028 141.731 75.1974 141.869 76.7921C142.008 78.3868 142.077 79.9468 142.077 81.4721C142.077 85.1468 140.864 87.6428 138.437 88.9601C137.328 89.5841 136.253 90.1734 135.213 90.7281C134.243 91.2828 133.099 91.5601 131.781 91.5601C130.464 91.5601 129.285 90.6934 128.245 88.9601C127.275 87.1574 126.789 84.3841 126.789 80.6401C126.789 70.1708 127.552 61.0881 129.077 53.3921C131.435 41.4668 136.115 28.7094 143.117 15.1201C144.088 13.2481 145.509 12.3467 147.381 12.4161C149.253 12.4161 150.779 13.6987 151.957 16.2641C153.136 18.8294 153.691 20.9787 153.621 22.7121C153.621 24.4454 153.344 26.1441 152.789 27.8081C152.304 29.4028 151.645 30.9974 150.813 32.5921C150.051 34.1174 149.149 35.7121 148.109 37.3761C147.139 38.9708 146.168 40.7041 145.197 42.5761L143.637 50.0641C146.341 45.5574 149.981 42.5414 154.557 41.0161C156.221 40.4614 158.059 40.1841 160.069 40.1841C164.784 40.1841 168.355 41.2588 170.781 43.4081C173.208 45.4881 174.421 48.4694 174.421 52.3521C174.421 56.1654 173.901 60.0481 172.861 64.0001C171.891 67.9521 171.163 70.7948 170.677 72.5281C170.261 74.1921 170.053 75.5788 170.053 76.6881C170.053 77.7974 170.435 78.3521 171.197 78.3521C172.237 78.3521 173.52 77.6934 175.045 76.3761C176.571 75.0588 178.096 73.6374 179.621 72.1121C181.147 70.5174 182.533 69.0614 183.781 67.7441C185.099 66.4268 186 65.7681 186.485 65.7681C187.456 65.7681 187.941 66.9468 187.941 69.3041C187.941 74.1574 185.549 78.8374 180.765 83.3441C172.723 88.0588 167.592 90.4161 165.373 90.4161C165.165 90.4161 165.027 90.3814 164.957 90.3121C159.411 90.3121 156.637 85.8748 156.637 77.0001C156.637 73.1868 156.984 69.6854 157.677 66.4961C158.44 63.3068 158.995 60.9841 159.341 59.5281C159.688 58.0721 159.861 56.5814 159.861 55.0561Z" fill="#518581"/>
<path d="M246.57 65.456C247.818 65.456 248.442 67.0507 248.442 70.24C248.442 71.9733 247.714 74.088 246.258 76.584C244.802 79.0107 242.895 81.264 240.538 83.344C238.25 85.3547 235.684 87.0187 232.842 88.336C229.999 89.6533 227.226 90.312 224.522 90.312C220.708 90.312 218.212 87.192 217.034 80.952C212.874 87.5387 206.703 90.832 198.522 90.832C193.53 90.832 189.543 89.3067 186.562 86.256C183.58 83.2053 182.124 79.496 182.194 75.128C182.194 63.3413 186.111 54.0507 193.946 47.256C199.354 42.6107 204.97 40.288 210.794 40.288C213.428 40.288 215.508 40.496 217.034 40.912L219.426 41.536C222.268 28.1547 225.562 19.2107 229.306 14.704C230.554 13.1787 231.802 12.416 233.05 12.416C235.06 12.416 236.932 13.8027 238.666 16.576C240.191 18.864 240.954 20.84 240.954 22.504C240.954 24.168 240.711 25.7973 240.226 27.392C239.74 28.9867 239.116 30.4773 238.354 31.864C237.66 33.1813 236.863 34.4987 235.962 35.816C235.06 37.064 234.159 38.3467 233.258 39.664C231.247 47.152 229.756 55.5413 228.786 64.832C228.508 67.4667 228.37 69.5813 228.37 71.176C228.37 75.96 229.167 78.352 230.762 78.352C232.564 78.352 236.932 74.7467 243.866 67.536C245.114 66.1493 246.015 65.456 246.57 65.456ZM197.482 71.696C197.482 77.0347 199.458 79.704 203.41 79.704C205.767 79.704 208.124 78.8027 210.482 77C212.908 75.1973 214.78 72.1813 216.098 67.952C216.236 61.712 216.964 54.848 218.282 47.36C212.735 48.4693 207.882 51.1733 203.722 55.472C199.562 59.7707 197.482 65.1787 197.482 71.696ZM285.261 81.16C279.784 87.608 273.197 90.832 265.501 90.832C257.874 90.832 252.154 88.8907 248.341 85.008C244.528 81.056 242.656 76.168 242.725 70.344C242.656 62.0933 245.256 54.9867 250.525 49.024C255.794 43.0613 262.693 40.08 271.221 40.08C275.104 40.08 278.224 40.5653 280.581 41.536C284.672 43.2 286.717 44.76 286.717 46.216C286.717 47.3253 283.84 47.9147 278.085 47.984C272.4 47.984 267.616 49.96 263.733 53.912C259.92 57.7947 258.013 62.7173 258.013 68.68C258.013 71.8 258.914 74.4347 260.717 76.584C262.589 78.664 265.189 79.704 268.517 79.704C271.914 79.704 274.722 79.0107 276.941 77.624C272.018 74.296 269.557 69.4773 269.557 63.168C269.488 59.84 270.666 56.824 273.093 54.12C275.589 51.3467 278.744 49.96 282.557 49.96C286.44 49.8907 289.213 50.9307 290.877 53.08C292.541 55.2293 293.373 58.0027 293.373 61.4C293.373 64.728 292.576 68.264 290.981 72.008H291.605C294.656 71.9387 297.29 70.864 299.509 68.784C300.341 67.952 301.034 67.224 301.589 66.6C302.213 65.976 302.837 65.664 303.461 65.664C304.432 65.664 304.917 66.808 304.917 69.096C304.917 73.3253 303.669 76.5147 301.173 78.664C298.677 80.744 295.904 81.784 292.853 81.784C289.872 81.784 287.341 81.576 285.261 81.16ZM284.325 69.096C285.504 66.6 286.093 64.1733 286.093 61.816C286.093 59.4587 285.33 58.28 283.805 58.28C283.181 58.28 282.661 58.7307 282.245 59.632C281.829 60.5333 281.621 61.4 281.621 62.232C281.621 65.0053 282.522 67.2933 284.325 69.096ZM322.906 90.312C312.991 90.3813 306.231 86.672 302.626 79.184C301.378 76.5493 300.754 73.256 300.754 69.304C300.754 65.2827 301.1 61.0187 301.794 56.512C303.18 47.4987 305.85 39.1787 309.802 31.552C311.812 27.6693 314.066 24.3413 316.562 21.568C322.039 15.4667 328.14 12.4507 334.866 12.52C337.847 12.52 340.17 13.352 341.834 15.016C343.567 16.6107 344.434 18.9334 344.434 21.984C344.434 25.0347 343.532 28.12 341.73 31.24C339.927 34.2907 337.604 37.48 334.762 40.808C331.988 44.0667 328.903 47.4987 325.506 51.104C322.108 54.7093 318.78 58.6267 315.522 62.856V67.016C315.522 70.8987 316.354 73.7413 318.018 75.544C319.682 77.3467 321.623 78.248 323.842 78.248C329.804 78.248 335.074 75.3013 339.65 69.408C341.522 66.9813 342.943 65.768 343.914 65.768C344.884 65.768 345.37 66.9467 345.37 69.304C345.37 71.6613 344.711 74.088 343.394 76.584C342.146 79.0107 340.482 81.264 338.402 83.344C336.322 85.3547 333.93 87.0187 331.226 88.336C328.522 89.6533 325.748 90.312 322.906 90.312ZM328.522 34.464C329.978 32.6613 331.122 31.032 331.954 29.576C332.786 28.12 333.202 26.6293 333.202 25.104C333.202 23.5093 332.647 22.712 331.538 22.712C329.111 22.712 326.407 25.208 323.426 30.2C320.514 35.192 318.33 41.744 316.874 49.856C319.231 46.2507 321.38 43.2347 323.322 40.808C325.332 38.3813 327.066 36.2667 328.522 34.464ZM403.078 65.456C404.326 65.456 404.95 67.0507 404.95 70.24C404.95 71.9733 404.222 74.088 402.766 76.584C401.31 79.0107 399.403 81.264 397.046 83.344C394.758 85.3547 392.192 87.0187 389.35 88.336C386.507 89.6533 383.734 90.312 381.03 90.312C377.355 90.312 374.894 87.088 373.646 80.64C371.843 83.6213 369.486 86.0827 366.574 88.024C363.662 89.896 359.744 90.832 354.822 90.832C349.968 90.832 346.051 89.3067 343.07 86.256C340.088 83.2053 338.632 79.496 338.702 75.128C338.702 63.3413 342.619 54.0507 350.454 47.256C353.782 44.4133 356.867 42.5413 359.71 41.64C362.622 40.7387 365.672 40.288 368.862 40.288C372.051 40.288 374.651 40.8427 376.662 41.952C377.632 39.9413 378.742 38.936 379.99 38.936C382.416 38.936 384.704 40.0107 386.854 42.16C389.072 44.24 390.182 46.216 390.182 48.088C389.211 50.376 387.79 53.1147 385.918 56.304C385.363 59.4933 385.086 63.9653 385.086 69.72C385.086 75.4747 385.814 78.352 387.27 78.352C389.072 78.352 393.44 74.7467 400.374 67.536C401.622 66.1493 402.523 65.456 403.078 65.456ZM353.99 71.696C353.99 77.0347 355.966 79.704 359.918 79.704C364.147 79.6347 367.648 77.3813 370.422 72.944C371.392 71.4187 372.19 69.5467 372.814 67.328C372.814 59.5627 373.507 52.9067 374.894 47.36C369.278 48.4693 364.39 51.1733 360.23 55.472C356.07 59.7707 353.99 65.1787 353.99 71.696ZM413.585 38.104C416.081 38.104 418.438 40.496 420.657 45.28C423.915 41.8827 427.937 40.184 432.721 40.184C437.574 40.184 441.214 41.2587 443.641 43.408C446.067 45.488 447.281 48.4693 447.281 52.352C447.281 56.1653 446.761 60.048 445.721 64C444.75 67.952 444.022 70.7947 443.537 72.528C443.121 74.192 442.913 75.5787 442.913 76.688C442.913 77.7973 443.294 78.352 444.057 78.352C445.097 78.352 446.379 77.6933 447.905 76.376C449.43 75.0587 450.955 73.6373 452.481 72.112C454.006 70.5173 455.393 69.0613 456.641 67.744C457.958 66.4267 458.859 65.768 459.345 65.768C460.315 65.768 460.801 66.9467 460.801 69.304C460.801 74.1573 458.409 78.8373 453.625 83.344C445.582 88.0587 440.451 90.416 438.233 90.416C438.025 90.416 437.886 90.3813 437.817 90.312C432.27 90.312 429.497 85.8747 429.497 77C429.497 73.1867 429.843 69.6853 430.537 66.496C431.299 63.3067 431.854 60.984 432.201 59.528C432.547 58.072 432.721 56.5813 432.721 55.056C432.721 52.56 431.265 51.312 428.353 51.312C425.51 51.312 422.771 53.4613 420.137 57.76C417.571 61.9893 415.838 66.392 414.937 70.968V71.696C414.937 74.0533 415.283 76.48 415.977 78.976C416.739 81.472 417.121 83.2053 417.121 84.176C417.121 86.5333 414.174 88.856 408.281 91.144C407.379 91.4907 406.582 91.664 405.889 91.664C404.155 91.664 402.942 90.7627 402.249 88.96C401.625 87.1573 401.313 84.3493 401.313 80.536C401.313 70.6907 401.694 63.584 402.457 59.216C403.497 52.6987 405.854 46.632 409.529 41.016C410.777 39.0747 412.129 38.104 413.585 38.104Z" fill="#FFB23F"/>
</svg>
